<svg width="198.529" height="47.664" viewBox="0 0 198.529 47.664" xmlns="http://www.w3.org/2000/svg"><g id="svgGroup" stroke-linecap="round" fill-rule="evenodd" font-size="9pt" stroke="#000000" stroke-width="0.25mm" fill="#000000" style="stroke:#000000;stroke-width:0.25mm;fill:#000000"><path d="M 73.152 33.84 L 73.152 35.712 L 65.904 35.712 L 59.088 26.064 L 57.312 27.888 L 57.312 33.84 L 60.336 33.84 L 60.336 35.712 L 49.824 35.712 L 49.824 33.84 L 52.848 33.84 L 52.848 1.872 L 49.824 1.872 L 49.824 0 L 57.312 0 L 57.312 25.008 L 65.328 16.32 L 62.448 16.32 L 62.448 14.448 L 71.424 14.448 L 71.424 16.32 L 68.688 16.32 L 62.448 22.656 L 70.128 33.84 L 73.152 33.84 Z M 132.192 20.64 L 132.192 33.84 L 135.216 33.84 L 135.216 35.712 L 124.704 35.712 L 124.704 33.84 L 127.728 33.84 L 127.728 1.872 L 124.704 1.872 L 124.704 0 L 132.192 0 L 132.192 18.144 A 13.55 13.55 0 0 1 134.18 16.136 Q 135.549 15.034 137.02 14.578 A 7.162 7.162 0 0 1 139.152 14.256 A 8.331 8.331 0 0 1 141.012 14.449 Q 142.165 14.713 142.983 15.34 A 4.416 4.416 0 0 1 144.168 16.728 A 9.282 9.282 0 0 1 144.988 18.818 Q 145.536 20.857 145.536 23.712 L 145.536 33.84 L 148.56 33.84 L 148.56 35.712 L 138.048 35.712 L 138.048 33.84 L 141.072 33.84 L 141.072 25.392 Q 141.072 20.44 140.029 18.662 A 3.295 3.295 0 0 0 139.992 18.6 A 3.518 3.518 0 0 0 137.431 16.91 A 5.246 5.246 0 0 0 136.608 16.848 A 2.951 2.951 0 0 0 135.043 17.338 Q 133.985 17.995 132.905 19.533 A 17.475 17.475 0 0 0 132.192 20.64 Z M 103.488 33.552 L 103.104 33.312 L 100.32 35.472 L 99.168 35.472 L 99.84 24.672 L 101.28 24.672 A 20.49 20.49 0 0 0 102.652 27.484 Q 103.922 29.623 105.552 30.936 A 10.728 10.728 0 0 0 107.551 32.229 A 7.387 7.387 0 0 0 110.832 33.024 A 7.974 7.974 0 0 0 112.58 32.844 Q 114.138 32.494 115.152 31.464 A 5.441 5.441 0 0 0 116.28 29.835 A 4.907 4.907 0 0 0 116.688 27.84 Q 116.688 25.92 115.032 24.384 A 15.646 15.646 0 0 0 112.723 22.625 A 19.785 19.785 0 0 0 111.024 21.672 Q 108.672 20.496 106.344 19.152 Q 104.016 17.808 102.36 15.576 A 8.41 8.41 0 0 1 100.704 10.507 A 10.294 10.294 0 0 1 100.704 10.416 Q 100.704 6.288 103.32 3.648 A 8.718 8.718 0 0 1 108.01 1.217 A 12.543 12.543 0 0 1 110.352 1.008 A 10.881 10.881 0 0 1 112.909 1.291 A 7.148 7.148 0 0 1 116.64 3.456 L 119.04 1.248 L 120.672 1.248 L 119.424 11.616 L 118.08 11.616 Q 118.08 11.152 117.699 10.04 A 19.055 19.055 0 0 0 117.672 9.96 Q 117.362 9.065 116.815 7.935 A 32.254 32.254 0 0 0 116.448 7.2 Q 115.632 5.616 113.928 4.44 Q 112.224 3.264 110.064 3.264 A 6.227 6.227 0 0 0 108.471 3.458 A 4.688 4.688 0 0 0 106.584 4.44 Q 105.216 5.616 105.216 7.872 A 4.112 4.112 0 0 0 105.971 10.233 A 5.557 5.557 0 0 0 106.416 10.8 A 9.499 9.499 0 0 0 108.643 12.622 A 11.277 11.277 0 0 0 109.392 13.032 Q 111.168 13.92 113.28 15.096 A 56.733 56.733 0 0 1 115.789 16.575 A 47.339 47.339 0 0 1 117.168 17.472 A 9.691 9.691 0 0 1 119.714 20.019 A 11.558 11.558 0 0 1 120.144 20.688 A 8.585 8.585 0 0 1 121.339 24.89 A 10.201 10.201 0 0 1 121.344 25.2 A 10.312 10.312 0 0 1 120.463 29.501 A 10.047 10.047 0 0 1 118.176 32.664 Q 115.008 35.664 110.688 35.664 Q 109.488 35.664 108.288 35.424 Q 107.215 35.209 106.391 34.918 A 9.398 9.398 0 0 1 106.2 34.848 Q 105.312 34.512 104.592 34.152 Q 103.999 33.855 103.633 33.64 A 6.536 6.536 0 0 1 103.488 33.552 Z M 0 33.84 L 3.648 33.84 L 12.864 10.32 Q 14.112 7.296 14.112 6 Q 14.112 4.708 13.942 3.983 A 2.707 2.707 0 0 0 13.824 3.6 Q 14.256 3.36 15.168 2.64 Q 16.08 1.92 16.824 1.584 A 3.848 3.848 0 0 1 18.378 1.248 A 4.417 4.417 0 0 1 18.432 1.248 A 10.893 10.893 0 0 1 20.563 1.452 A 10.061 10.061 0 0 1 20.736 1.488 L 31.488 33.84 L 34.752 33.84 L 34.752 35.712 L 20.64 35.712 L 20.64 33.84 L 24.864 33.84 L 21.696 22.848 L 10.512 22.848 L 6.48 33.84 L 10.464 33.84 L 10.464 35.712 L 0 35.712 L 0 33.84 Z M 175.2 45.792 L 178.224 45.792 L 178.224 16.32 L 175.2 16.32 L 175.2 14.448 L 182.688 14.448 L 182.688 17.328 L 183.456 16.512 A 4.886 4.886 0 0 1 184.027 16.03 Q 184.654 15.571 185.607 15.105 A 17.718 17.718 0 0 1 185.928 14.952 Q 187.632 14.16 189.504 14.16 A 9.192 9.192 0 0 1 192.788 14.727 A 8.194 8.194 0 0 1 196.008 16.968 A 9.449 9.449 0 0 1 198.112 21.005 Q 198.528 22.626 198.528 24.576 Q 198.528 29.328 195.648 32.64 Q 192.768 35.952 188.448 35.952 A 10.223 10.223 0 0 1 186.19 35.711 A 8.544 8.544 0 0 1 184.704 35.232 A 10.896 10.896 0 0 1 184.033 34.919 Q 183.004 34.392 182.716 33.892 A 1.006 1.006 0 0 1 182.688 33.84 L 182.688 45.792 L 185.712 45.792 L 185.712 47.664 L 175.2 47.664 L 175.2 45.792 Z M 36.672 0 L 44.16 0 L 44.16 33.84 L 47.184 33.84 L 47.184 35.712 L 36.672 35.712 L 36.672 33.84 L 39.696 33.84 L 39.696 1.872 L 36.672 1.872 L 36.672 0 Z M 94.848 24.144 L 80.688 24.144 Q 80.828 33.994 87.279 34.264 A 8.815 8.815 0 0 0 87.648 34.272 A 6.173 6.173 0 0 0 88.915 34.145 A 5.535 5.535 0 0 0 89.28 34.056 Q 90.048 33.84 90.648 33.48 A 8.499 8.499 0 0 0 91.416 32.962 A 7.271 7.271 0 0 0 91.728 32.712 Q 92.208 32.304 92.616 31.824 A 12.501 12.501 0 0 0 92.852 31.538 Q 92.972 31.389 93.069 31.256 A 5.033 5.033 0 0 0 93.24 31.008 Q 93.456 30.672 93.696 30.336 L 93.888 29.952 L 95.088 30.624 Q 94.993 30.862 94.661 31.36 A 14.928 14.928 0 0 1 94.656 31.368 Q 94.32 31.872 93.936 32.472 A 4.83 4.83 0 0 1 93.544 32.996 Q 93.243 33.35 92.832 33.72 Q 92.112 34.368 91.296 34.872 Q 90.48 35.376 89.304 35.712 A 8.903 8.903 0 0 1 86.994 36.047 A 9.913 9.913 0 0 1 86.832 36.048 Q 82.176 36.048 79.104 33.12 Q 76.032 30.192 76.032 25.296 Q 76.032 22.198 77.042 19.903 A 10.033 10.033 0 0 1 77.088 19.8 A 10.283 10.283 0 0 1 78.049 18.103 Q 78.752 17.109 79.635 16.455 A 6.317 6.317 0 0 1 79.824 16.32 A 14.376 14.376 0 0 1 81.602 15.272 A 11.311 11.311 0 0 1 83.16 14.64 A 10.905 10.905 0 0 1 86.014 14.121 A 10.126 10.126 0 0 1 86.448 14.112 Q 87.744 14.112 89.016 14.424 A 8.831 8.831 0 0 1 90.17 14.798 Q 90.939 15.104 91.776 15.576 A 5.568 5.568 0 0 1 93.515 17.138 A 7.486 7.486 0 0 1 94.176 18.216 Q 95.003 19.847 95.08 22.129 A 14.116 14.116 0 0 1 95.088 22.608 A 9.375 9.375 0 0 1 95.077 23.092 Q 95.036 23.882 94.848 24.144 Z M 151.108 27.21 A 10.509 10.509 0 0 0 153.84 33.024 A 9.339 9.339 0 0 0 158.416 35.699 A 13.317 13.317 0 0 0 161.76 36.096 Q 166.8 36.096 169.68 33.024 A 10.238 10.238 0 0 0 172.085 28.75 A 13.325 13.325 0 0 0 172.56 25.104 A 14.493 14.493 0 0 0 172.412 22.998 A 10.509 10.509 0 0 0 169.68 17.184 A 9.339 9.339 0 0 0 165.104 14.509 A 13.317 13.317 0 0 0 161.76 14.112 Q 156.72 14.112 153.84 17.184 A 10.238 10.238 0 0 0 151.435 21.458 A 13.325 13.325 0 0 0 150.96 25.104 A 14.493 14.493 0 0 0 151.108 27.21 Z M 157.56 18.384 A 9.953 9.953 0 0 0 156.386 21.229 Q 156.074 22.473 155.986 23.93 A 19.538 19.538 0 0 0 155.952 25.104 Q 155.952 28.323 156.93 30.608 A 9.074 9.074 0 0 0 157.56 31.824 Q 159.168 34.416 161.76 34.416 A 4.491 4.491 0 0 0 165.266 32.77 A 7.177 7.177 0 0 0 165.96 31.824 A 9.953 9.953 0 0 0 167.134 28.979 Q 167.446 27.735 167.534 26.278 A 19.538 19.538 0 0 0 167.568 25.104 Q 167.568 21.885 166.59 19.6 A 9.074 9.074 0 0 0 165.96 18.384 Q 164.352 15.792 161.76 15.792 A 4.491 4.491 0 0 0 158.254 17.438 A 7.177 7.177 0 0 0 157.56 18.384 Z M 182.832 19.296 L 182.688 19.44 L 182.688 30.96 Q 183.027 31.705 183.916 32.403 A 8.443 8.443 0 0 0 184.752 32.976 A 6.708 6.708 0 0 0 186.564 33.752 A 5.822 5.822 0 0 0 188.016 33.936 A 4.363 4.363 0 0 0 191.464 32.292 A 7.075 7.075 0 0 0 192.168 31.296 A 10.401 10.401 0 0 0 193.288 28.494 Q 193.604 27.22 193.693 25.728 A 20.155 20.155 0 0 0 193.728 24.528 Q 193.728 21.503 192.527 19.453 A 7.237 7.237 0 0 0 192.072 18.768 A 5.594 5.594 0 0 0 190.383 17.239 Q 189.198 16.56 187.68 16.56 A 4.961 4.961 0 0 0 186.654 16.67 A 5.568 5.568 0 0 0 186.504 16.704 Q 185.904 16.848 185.424 17.112 A 12.527 12.527 0 0 0 184.515 17.662 A 10.596 10.596 0 0 0 184.512 17.664 Q 184.08 17.952 183.744 18.288 Q 183.409 18.623 183.193 18.863 A 30.472 30.472 0 0 0 183.192 18.864 Q 183.027 19.048 182.903 19.203 A 4.497 4.497 0 0 0 182.832 19.296 Z M 16.128 7.584 L 11.232 20.928 L 21.168 20.928 L 18.144 10.704 L 16.128 7.584 Z M 80.784 22.368 L 90.384 22.368 A 4.838 4.838 0 0 0 90.513 21.541 A 5.863 5.863 0 0 0 90.528 21.12 Q 90.528 19.104 89.472 17.424 Q 88.416 15.744 86.352 15.744 Q 84.096 15.744 82.632 17.688 A 9.408 9.408 0 0 0 81.064 20.97 A 11.863 11.863 0 0 0 80.784 22.368 Z" vector-effect="non-scaling-stroke"/></g></svg>